<svg width="20" height="20" viewBox="0 0 20 20" fill="none" xmlns="http://www.w3.org/2000/svg">
<path fill-rule="evenodd" clip-rule="evenodd" d="M9.74359 0L18.9744 1.18876e-06C19.5408 7.83499e-07 20 0.459196 20 1.02564L20 10.2564C20 10.8229 19.5408 11.2821 18.9744 11.2821C18.4079 11.2821 17.9487 10.8229 17.9487 10.2564V3.50176L1.75088 19.6996C1.35034 20.1001 0.700941 20.1001 0.300403 19.6996C-0.100135 19.2991 -0.100134 18.6497 0.300403 18.2491L16.4982 2.05128L9.74359 2.05128C9.17714 2.05128 8.71795 1.59209 8.71795 1.02564C8.71795 0.459195 9.17714 4.32275e-07 9.74359 0Z" fill="white"/>
</svg>
