<svg width="30" height="30" viewBox="0 0 30 30" fill="none" xmlns="http://www.w3.org/2000/svg">
<path d="M28.3746 13.4504C29.328 13.0529 30 12.1114 30 11.0156C30 9.56174 28.8172 8.37891 27.3633 8.37891H25.8874L25.4241 6.98924C24.8251 5.19193 23.1497 3.98438 21.2551 3.98438H20.2734V3.10547C20.2734 1.65158 19.0906 0.46875 17.6367 0.46875H12.3633C10.9094 0.46875 9.72656 1.65158 9.72656 3.10547V3.98438H8.74488C6.85037 3.98438 5.17494 5.19193 4.57588 6.98924L4.11264 8.37891H2.63672C1.18283 8.37891 0 9.56174 0 11.0156C0 12.1114 0.672012 13.0529 1.62539 13.4503L0.866543 14.1926C0.292441 14.7543 0.00802734 15.5349 0.08625 16.3343L0.800859 23.6357C0.874629 24.3895 1.25602 25.0401 1.81406 25.4697L1.81641 27.4805C1.81641 28.6113 2.73639 29.5312 3.86719 29.5312H5.91797C7.04877 29.5312 7.96875 28.6113 7.96875 27.4805V26.0156H22.0312V27.4805C22.0312 28.6113 22.9512 29.5312 24.082 29.5312H26.1328C27.2636 29.5312 28.1836 28.6113 28.1836 27.4805V25.4815C28.7507 25.0515 29.1381 24.3943 29.2116 23.6319L29.9153 16.3316C29.9922 15.5336 29.7076 14.7544 29.1346 14.1938L28.3746 13.4504ZM27.462 23.4632C27.4182 23.9162 27.0421 24.2578 26.587 24.2578H3.42504C2.97064 24.2578 2.59459 23.9168 2.55029 23.4645L2.36414 21.5625H4.69406C6.01348 21.5625 7.08691 20.4891 7.08691 19.1696C7.08691 18.1082 6.40447 17.1881 5.38875 16.8799L1.87307 15.8133C1.98932 15.4441 2.12584 15.4664 3.87363 13.7101C11.1214 14.801 18.8745 14.8016 26.1264 13.7101C27.883 15.4743 28.0097 15.4458 28.1266 15.8096L24.6237 16.8562C23.6023 17.1612 22.897 18.1188 22.9083 19.1846C22.9223 20.4958 24.0004 21.5625 25.3116 21.5625H27.6451L27.462 23.4632ZM1.98457 17.684L4.87846 18.562C5.57443 18.7733 5.42092 19.8047 4.69406 19.8047H2.19211L1.98457 17.684ZM25.3116 19.8047C24.9594 19.8047 24.6697 19.5181 24.666 19.166C24.6629 18.8796 24.8524 18.6224 25.1268 18.5404L28.0197 17.6762L27.8146 19.8047H25.3116ZM27.3633 10.1367C27.8479 10.1367 28.2422 10.531 28.2422 11.0156C28.2422 11.5003 27.8479 11.8945 27.3633 11.8945H27.0593L26.4734 10.1367H27.3633ZM11.4844 3.10547C11.4844 2.62084 11.8787 2.22656 12.3633 2.22656H17.6367C18.1213 2.22656 18.5156 2.62084 18.5156 3.10547V3.98438H11.4844V3.10547ZM6.24346 7.54512C6.60287 6.46676 7.60811 5.74219 8.74482 5.74219H21.2551C22.3918 5.74219 23.3971 6.4667 23.7565 7.54512L25.2605 12.0571C18.3226 13.0099 11.6833 13.0107 4.73941 12.0571L6.24346 7.54512ZM2.63672 10.1367H3.5267L2.94076 11.8945H2.63672C2.15209 11.8945 1.75781 11.5003 1.75781 11.0156C1.75781 10.531 2.15209 10.1367 2.63672 10.1367ZM6.21094 27.4805C6.21094 27.642 6.07951 27.7734 5.91797 27.7734H3.86719C3.70564 27.7734 3.57422 27.642 3.57422 27.4794L3.57246 26.0156H6.21094V27.4805ZM26.1328 27.7734H24.082C23.9205 27.7734 23.7891 27.642 23.7891 27.4805V26.0156H26.4258V27.4805C26.4258 27.642 26.2944 27.7734 26.1328 27.7734Z" fill="#80CA16"/>
<path d="M20.2734 17.168H9.72656C9.24117 17.168 8.84766 17.5615 8.84766 18.0469C8.84766 20.4691 10.8183 22.4402 13.2407 22.4405C13.2476 22.4405 16.7649 22.4408 16.7586 22.4408C17.932 22.4408 19.0354 21.9838 19.8652 21.1542C21.2774 19.7422 21.1511 18.0531 21.1523 18.0469C21.1523 17.5615 20.7588 17.168 20.2734 17.168ZM18.6223 19.9111C17.7753 20.7581 16.7647 20.6817 16.7582 20.683L13.2408 20.6827C12.0957 20.6825 11.1188 19.9482 10.7561 18.9258H19.2452C19.116 19.2923 18.9053 19.6282 18.6223 19.9111Z" fill="#80CA16"/>
</svg>
