<svg width="30" height="30" viewBox="0 0 30 30" fill="none" xmlns="http://www.w3.org/2000/svg">
<path d="M23.8308 0.908203H6.16922C2.7675 0.908203 0 3.6757 0 7.07742C0 10.4791 2.7675 13.2466 6.16922 13.2466H10.6612V18.2308L10.4419 18.0468C9.35771 17.137 7.66119 17.211 6.66035 18.2119C5.61152 19.2608 5.6802 20.9277 6.82072 21.8846L10.6611 25.1072V28.2129C10.6611 28.6983 11.0546 29.0918 11.54 29.0918H22.0869C22.5723 29.0918 22.9658 28.6983 22.9658 28.2129V18.3366C22.9658 17.0091 21.9724 15.8842 20.6551 15.7201L15.9346 15.132V13.2465H23.8308C27.2326 13.2465 30 10.479 30 7.0773C30 3.67559 27.2326 0.908203 23.8308 0.908203ZM12.4189 27.334V25.5762H21.208V27.334H12.4189ZM20.4378 17.4644C20.8769 17.5191 21.2081 17.8941 21.2081 18.3366V23.8184H11.86L7.95059 20.538C7.60359 20.2469 7.58256 19.7756 7.9033 19.4548C8.26353 19.0946 8.92178 19.0659 9.31201 19.3934L10.9751 20.7889C11.5456 21.2675 12.419 20.8615 12.419 20.1156V8.87695C12.419 8.39232 12.8133 7.99805 13.2979 7.99805C13.7825 7.99805 14.1768 8.39232 14.1768 8.87695V15.9082C14.1768 16.3516 14.5071 16.7255 14.9471 16.7804L20.4378 17.4644ZM23.8308 11.4888H15.9346V8.87695C15.9346 7.42307 14.7517 6.24023 13.2979 6.24023C11.844 6.24023 10.6611 7.42307 10.6611 8.87695V11.4888H6.16916C3.73676 11.4888 1.75781 9.50982 1.75781 7.07742C1.75781 4.64502 3.73676 2.66602 6.16922 2.66602H23.8308C26.2632 2.66602 28.2422 4.64496 28.2422 7.07742C28.2422 9.50988 26.2632 11.4888 23.8308 11.4888Z" fill="#80CA16"/>
<path d="M23.1598 4.6813L20.2657 7.57542L19.1293 6.43911C18.7861 6.09587 18.2296 6.09587 17.8863 6.43911C17.5431 6.78236 17.5431 7.33882 17.8863 7.68206L19.6442 9.43987C19.9873 9.78311 20.5439 9.78317 20.8871 9.43987L24.4027 5.92425C24.746 5.58101 24.746 5.02455 24.4027 4.6813C24.0596 4.338 23.503 4.338 23.1598 4.6813Z" fill="#80CA16"/>
</svg>
