<svg width="30" height="30" viewBox="0 0 30 30" fill="none" xmlns="http://www.w3.org/2000/svg">
<path d="M23.4961 23.4961C22.2849 23.4961 21.2546 24.2824 20.8869 25.3711H4.62891C3.04576 25.3711 1.75781 24.0831 1.75781 22.5C1.75781 20.9169 3.04576 19.6289 4.62891 19.6289H10.2539C12.8063 19.6289 14.8828 17.5524 14.8828 15C14.8828 12.4476 12.8063 10.3711 10.2539 10.3711H5.36314C5.08875 9.55863 4.44527 8.91516 3.63281 8.64076V6.50391H8.37891C8.8643 6.50391 9.25781 6.11039 9.25781 5.625V1.875C9.25781 1.38961 8.8643 0.996094 8.37891 0.996094H2.75391C2.26852 0.996094 1.875 1.38961 1.875 1.875V5.625V8.64076C0.786328 9.0085 0 10.0388 0 11.25C0 12.7685 1.23539 14.0039 2.75391 14.0039C3.9651 14.0039 4.99541 13.2176 5.36314 12.1289H10.2539C11.8371 12.1289 13.125 13.4169 13.125 15C13.125 16.5831 11.8371 17.8711 10.2539 17.8711H4.62891C2.0765 17.8711 0 19.9476 0 22.5C0 25.0524 2.0765 27.1289 4.62891 27.1289H20.8869C21.2546 28.2176 22.2849 29.0039 23.4961 29.0039C25.0146 29.0039 26.25 27.7685 26.25 26.25C26.25 24.7315 25.0146 23.4961 23.4961 23.4961ZM3.63281 2.75391H7.5V4.74609H3.63281V2.75391ZM2.75391 12.2461C2.20465 12.2461 1.75781 11.7993 1.75781 11.25C1.75781 10.7007 2.20465 10.2539 2.75391 10.2539C3.30316 10.2539 3.75 10.7007 3.75 11.25C3.75 11.7993 3.30316 12.2461 2.75391 12.2461ZM23.4961 27.2461C22.9468 27.2461 22.5 26.7993 22.5 26.25C22.5 25.7007 22.9468 25.2539 23.4961 25.2539C24.0454 25.2539 24.4922 25.7007 24.4922 26.25C24.4922 26.7993 24.0454 27.2461 23.4961 27.2461Z" fill="#80CA16"/>
<path d="M23.4961 6.62109C21.9776 6.62109 20.7422 7.85648 20.7422 9.375C20.7422 10.8935 21.9776 12.1289 23.4961 12.1289C25.0146 12.1289 26.25 10.8935 26.25 9.375C26.25 7.85648 25.0146 6.62109 23.4961 6.62109ZM23.4961 10.3711C22.9468 10.3711 22.5 9.92426 22.5 9.375C22.5 8.82574 22.9468 8.37891 23.4961 8.37891C24.0454 8.37891 24.4922 8.82574 24.4922 9.375C24.4922 9.92426 24.0454 10.3711 23.4961 10.3711Z" fill="#80CA16"/>
<path d="M23.4961 2.87109C19.9098 2.87109 16.9922 5.78871 16.9922 9.375C16.9922 11.3116 17.8359 13.1159 19.314 14.3563L22.713 21.0241C22.8631 21.3186 23.1656 21.5039 23.4961 21.5039C23.8266 21.5039 24.1291 21.3186 24.2791 21.0241L27.6782 14.3563C29.1563 13.1159 30 11.3116 30 9.375C30 5.78871 27.0824 2.87109 23.4961 2.87109ZM26.4346 13.1023C26.3351 13.1809 26.2538 13.28 26.1962 13.3929L23.4961 18.6898L20.796 13.3929C20.7384 13.28 20.6571 13.1809 20.5576 13.1023C19.4088 12.1952 18.75 10.8367 18.75 9.375C18.75 6.75797 20.8791 4.62891 23.4961 4.62891C26.1131 4.62891 28.2422 6.75797 28.2422 9.375C28.2422 10.8367 27.5834 12.1952 26.4346 13.1023Z" fill="#80CA16"/>
</svg>
